Abduction_states
version=1
nRows=8
nColumns=41
inDegrees=yes

# SIMM Motion File Header:
name Abduction_states
datacolumns 41
datarows 8
otherdata 1
range 2.04898965 2.56758182
endheader
time	/jointset/ground_thorax/thorax_tilt/value	/jointset/ground_thorax/thorax_tilt/speed	/jointset/ground_thorax/thorax_list/value	/jointset/ground_thorax/thorax_list/speed	/jointset/ground_thorax/thorax_rotation/value	/jointset/ground_thorax/thorax_rotation/speed	/jointset/ground_thorax/thorax_tx/value	/jointset/ground_thorax/thorax_tx/speed	/jointset/ground_thorax/thorax_ty/value	/jointset/ground_thorax/thorax_ty/speed	/jointset/ground_thorax/thorax_tz/value	/jointset/ground_thorax/thorax_tz/speed	/jointset/sternoclavicular/sternoclavicular_r2/value	/jointset/sternoclavicular/sternoclavicular_r2/speed	/jointset/sternoclavicular/sternoclavicular_r3/value	/jointset/sternoclavicular/sternoclavicular_r3/speed	/jointset/unrotscap/unrotscap_r3/value	/jointset/unrotscap/unrotscap_r3/speed	/jointset/unrotscap/unrotscap_r2/value	/jointset/unrotscap/unrotscap_r2/speed	/jointset/acromioclavicular/acromioclavicular_r2/value	/jointset/acromioclavicular/acromioclavicular_r2/speed	/jointset/acromioclavicular/acromioclavicular_r3/value	/jointset/acromioclavicular/acromioclavicular_r3/speed	/jointset/acromioclavicular/acromioclavicular_r1/value	/jointset/acromioclavicular/acromioclavicular_r1/speed	/jointset/unrothum/unrothum_r1/value	/jointset/unrothum/unrothum_r1/speed	/jointset/unrothum/unrothum_r3/value	/jointset/unrothum/unrothum_r3/speed	/jointset/unrothum/unrothum_r2/value	/jointset/unrothum/unrothum_r2/speed	/jointset/shoulder0/elv_angle/value	/jointset/shoulder0/elv_angle/speed	/jointset/shoulder1/shoulder_elv/value	/jointset/shoulder1/shoulder_elv/speed	/jointset/shoulder1/shoulder1_r2/value	/jointset/shoulder1/shoulder1_r2/speed	/jointset/shoulder2/shoulder_rot/value	/jointset/shoulder2/shoulder_rot/speed
      2.04898965	     -0.00000000	     -0.00000000	     -0.00000000	     -0.00000000	     -0.00000000	     -0.00000000	      0.00000000	      0.00000000	     -0.00000000	     -0.00000000	     -0.00000000	     -0.00000000	    -15.47608372	     16.57967550	      6.55493347	     -7.02236249	     -6.55493347	      7.02236249	     15.47608372	    -16.57967550	     -3.13356802	      3.35702119	     25.32405650	    -27.12990228	     11.38324523	    -12.19497874	    -11.38324523	     12.19497874	    -25.32405650	     27.12990228	      3.13356802	     -3.35702119	     30.00000000	     -0.00000000	     63.95136482	    -68.51170460	    -30.00000000	      0.00000000	      0.00000000	      0.00000000
      2.10637442	     -0.00000000	     -0.00000000	     -0.00000000	     -0.00000000	     -0.00000000	     -0.00000000	      0.00000000	      0.00000000	     -0.00000000	     -0.00000000	     -0.00000000	     -0.00000000	    -14.50693212	     17.04199950	      6.14444691	     -7.21818096	     -6.14444691	      7.21818096	     14.50693212	    -17.04199950	     -2.93733605	      3.45063167	     23.73819987	    -27.88641919	     10.67039755	    -12.53503554	    -10.67039755	     12.53503554	    -23.73819987	     27.88641919	      2.93733605	     -3.45063167	     30.00000000	     -0.00000000	     59.94656820	    -70.42215245	    -30.00000000	      0.00000000	      0.00000000	      0.00000000
      2.16375919	     -0.00000000	     -0.00000000	     -0.00000000	     -0.00000000	     -0.00000000	     -0.00000000	      0.00000000	      0.00000000	     -0.00000000	     -0.00000000	     -0.00000000	     -0.00000000	    -13.53335931	     16.80809654	      5.73208775	     -7.11911079	     -5.73208775	      7.11911079	     13.53335931	    -16.80809654	     -2.74020887	      3.40327144	     22.14510867	    -27.50367561	      9.95429791	    -12.36299106	     -9.95429791	     12.36299106	    -22.14510867	     27.50367561	      2.74020887	     -3.40327144	     30.00000000	     -0.00000000	     55.92350197	    -69.45560214	    -30.00000000	      0.00000000	      0.00000000	      0.00000000
      2.22114396	     -0.00000000	     -0.00000000	     -0.00000000	     -0.00000000	     -0.00000000	     -0.00000000	      0.00000000	      0.00000000	     -0.00000000	     -0.00000000	     -0.00000000	     -0.00000000	    -12.58426550	     16.23312990	      5.33009672	     -6.87558225	     -5.33009672	      6.87558225	     12.58426550	    -16.23312990	     -2.54803816	      3.28685329	     20.59207331	    -26.56283761	      9.25620350	    -11.94008134	     -9.25620350	     11.94008134	    -20.59207331	     26.56283761	      2.54803816	     -3.28685329	     30.00000000	     -0.00000000	     52.00158960	    -67.07968444	    -30.00000000	      0.00000000	      0.00000000	      0.00000000
      2.27852874	     -0.00000000	     -0.00000000	     -0.00000000	     -0.00000000	     -0.00000000	     -0.00000000	      0.00000000	      0.00000000	     -0.00000000	     -0.00000000	     -0.00000000	     -0.00000000	    -11.67304463	     15.50996261	      4.94414687	     -6.56928295	     -4.94414687	      6.56928295	     11.67304463	    -15.50996261	     -2.36353589	      3.14042775	     19.10101076	    -25.37949370	      8.58596606	    -11.40816443	     -8.58596606	     11.40816443	    -19.10101076	     25.37949370	      2.36353589	     -3.14042775	     30.00000000	     -0.00000000	     48.23617842	    -64.09136154	    -30.00000000	      0.00000000	      0.00000000	      0.00000000
      2.35178588	     -0.00000000	     -0.00000000	     -0.00000000	     -0.00000000	     -0.00000000	     -0.00000000	      0.00000000	      0.00000000	     -0.00000000	     -0.00000000	     -0.00000000	     -0.00000000	    -10.57324180	     14.50768688	      4.47832267	     -6.14476660	     -4.47832267	      6.14476660	     10.57324180	    -14.50768688	     -2.14084991	      2.93748887	     17.30136497	    -23.73943491	      7.77701946	    -10.67095271	     -7.77701946	     10.67095271	    -17.30136497	     23.73943491	      2.14084991	     -2.93748887	     30.00000000	     -0.00000000	     43.69149559	    -59.94968709	    -30.00000000	      0.00000000	      0.00000000	      0.00000000
      2.44299078	     -0.00000000	     -0.00000000	     -0.00000000	     -0.00000000	     -0.00000000	      0.00000000	      0.00000000	      0.00000000	     -0.00000000	     -0.00000000	     -0.00000000	     -0.00000000	     -9.30838264	     13.22676278	      3.94258845	     -5.60222803	     -3.94258845	      5.60222803	      9.30838264	    -13.22676278	     -1.88474363	      2.67812979	     15.23163173	    -21.64341405	      6.84666768	     -9.72878456	     -6.84666768	      9.72878456	    -15.23163173	     21.64341405	      1.88474363	     -2.67812979	     30.00000000	     -0.00000000	     38.46475535	    -54.65656216	    -30.00000000	      0.00000000	      0.00000000	      0.00000000
      2.56758182	     -0.00000000	     -0.00000000	     -0.00000000	     -0.00000000	     -0.00000000	      0.00000000	      0.00000000	      0.00000000	     -0.00000000	     -0.00000000	     -0.00000000	     -0.00000000	     -7.76966684	     11.47502602	      3.29086157	     -4.86027560	     -3.29086157	      4.86027560	      7.76966684	    -11.47502602	     -1.57318738	      2.32344146	     12.71377730	    -18.77698599	      5.71488398	     -8.44031588	     -5.71488398	      8.44031588	    -12.71377730	     18.77698599	      1.57318738	     -2.32344146	     30.00000000	     -0.00000000	     32.10636537	    -47.41791197	    -30.00000000	      0.00000000	      0.00000000	      0.00000000
